<?xml version="1.0" standalone="no"?>
<!DOCTYPE svg PUBLIC "-//W3C//DTD SVG 1.1//EN" "http://www.w3.org/Graphics/SVG/1.1/DTD/svg11.dtd" >
<svg>
<metadata>
Created by FontForge 20090914 at Sun Apr 26 11:25:30 2020
 By www-data
Copyright 1992, 1994, 1997, 2000, 2004 Adobe Systems Incorporated. All rights reserved. Myriad is either a registered trademark or a trademark of Adobe Systems Incorporated in the United States and/or other countries.
</metadata>
<defs>
<font id="SQDRSS+MyriadPro-Regular" horiz-adv-x="513" >
  <font-face 
    font-family="Myriad Pro"
    font-weight="400"
    font-stretch="normal"
    units-per-em="1000"
    panose-1="2 0 5 3 0 0 0 0 0 0"
    ascent="800"
    descent="-200"
    x-height="483.999"
    cap-height="674"
    bbox="-45.001 -221.002 838 721"
    underline-thickness="50"
    underline-position="-100"
    unicode-range="U+0020-U+201D"
  />
<missing-glyph horiz-adv-x="500" 
d="M0 0v700h500v-700h-500zM250 395l170 255h-340zM280 350l170 -255v510zM80 50h340l-170 255zM50 605v-510l170 255z" />
    <glyph glyph-name=".notdef" horiz-adv-x="500" 
d="M0 0v700h500v-700h-500zM250 395l170 255h-340zM280 350l170 -255v510zM80 50h340l-170 255zM50 605v-510l170 255z" />
    <glyph glyph-name="space" unicode=" " horiz-adv-x="212" 
 />
    <glyph glyph-name="percent" unicode="%" horiz-adv-x="792" 
d="M187 661c46 0 82.668 -17 110.001 -51s41 -81.667 41 -143c0 -65.333 -14.833 -115.833 -44.5 -151.5s-66.834 -53.5 -111.501 -53.5c-42.667 0 -78.5 17 -107.5 51s-43.833 82.333 -44.5 145c0 62.667 15 112.167 45 148.5s67.333 54.5 112 54.5zM184.001 608
c-26.667 0 -47.332 -13.832 -61.999 -41.499s-22 -62.834 -22 -105.501c-1.33301 -42.667 5.66699 -77.667 21 -105s36.333 -41 63 -41c28 0 49 13.333 63 40s21 62.667 21 108c0 42.667 -6.83301 77.5 -20.5 104.5s-34.834 40.5 -63.501 40.5zM232.003 -10.999h-56l382 672
h56zM611.003 392.001c46 0 82.5 -16.999 109.5 -50.999s40.5 -81.667 40.5 -143c0 -65.333 -14.833 -115.833 -44.5 -151.5s-66.5 -53.5 -110.5 -53.5c-42.667 0 -78.5 17 -107.5 51s-43.833 82 -44.5 144c0 63.333 15 113.166 45 149.499s67.333 54.5 112 54.5z
M608.003 339.002c-26.667 0 -47.498 -13.832 -62.498 -41.499s-22.5 -62.834 -22.5 -105.501c-0.666992 -42.667 6.66602 -77.667 21.999 -105s36.333 -41 63 -41c28 0 49 13.333 63 40s21 62.667 21 108c0 42.667 -6.83301 77.5 -20.5 104.5s-34.834 40.5 -63.501 40.5z
" />
    <glyph glyph-name="parenleft" unicode="(" horiz-adv-x="284" 
d="M195 694l68.999 0.00195312c-84 -112.667 -126 -249 -126 -409c0 -152.667 42 -288 126 -406h-69c-87.333 115.333 -131 250.666 -131 405.999c0.666992 157.333 44.334 293.666 131.001 408.999z" />
    <glyph glyph-name="parenright" unicode=")" horiz-adv-x="284" 
d="M88 -121l-68 0.00195312c84 117.333 126 253.666 126 408.999s-42 290.666 -126 405.999h68c87.333 -112 131 -247.667 131 -407c0 -156 -43.667 -292 -131 -408z" />
    <glyph glyph-name="comma" unicode="," horiz-adv-x="207" 
d="M79 -117l-63 -6c26.667 72 46.667 151.667 60 239l98 10c-11.333 -42 -26.5 -87 -45.5 -135s-35.5 -84 -49.5 -108z" />
    <glyph glyph-name="hyphen" unicode="-" horiz-adv-x="307" 
d="M30 303h247v-65h-247v65z" />
    <glyph glyph-name="period" unicode="." horiz-adv-x="207" 
d="M111 -11c-17.333 0 -31.499 6.00098 -42.499 18.001s-16.5 27 -16.5 45c0 18.667 5.66699 33.834 17 45.501s25.666 17.5 42.999 17.5s31.5 -5.83301 42.5 -17.5s16.5 -26.834 16.5 -45.501s-5.5 -33.834 -16.5 -45.501s-25.5 -17.5 -43.5 -17.5z" />
    <glyph glyph-name="zero" unicode="0" 
d="M262 661c68 0 120.833 -28.833 158.5 -86.5s56.5 -138.5 56.5 -242.5c0 -110 -19.667 -194.667 -59 -254s-95 -89 -167 -89c-64.667 0 -116.5 29.167 -155.5 87.5s-58.833 140.5 -59.5 246.5c0 106.667 20.667 189.667 62 249s96 89 164 89zM257 593
c-40 0 -72.168 -23.667 -96.501 -71s-36.5 -114 -36.5 -200c0 -83.333 11.833 -148.333 35.5 -195s55.834 -70 96.501 -70c44 0 77.167 23.833 99.5 71.5s33.5 114.167 33.5 199.5c0 82.667 -11 147.5 -33 194.5s-55 70.5 -99 70.5z" />
    <glyph glyph-name="one" unicode="1" 
d="M236 0v568h-2l-113 -61l-17 67l142 76h75v-650h-85z" />
    <glyph glyph-name="two" unicode="2" 
d="M460 0l-415.001 -0.000976562v54l69 67c90 86 152.667 152.667 188 200s53.333 94 54 140c0 36.667 -10.167 67 -30.5 91s-53.166 36 -98.499 36c-48 0 -94 -18.333 -138 -55l-28 62c52 44 113.333 66 184 66c65.333 0 114.833 -18.667 148.5 -56
s50.5 -81.666 50.5 -132.999c0 -55.333 -17.667 -108.5 -53 -159.5s-92.333 -114.167 -171 -189.5l-52 -48v-2h292v-73z" />
    <glyph glyph-name="four" unicode="4" 
d="M400 0h-83v177h-302v58l290 415h95v-404h91v-69h-91v-177zM104 246h213v217c0 34 1 68 3 102h-3c-17.333 -32.667 -35.333 -64.667 -54 -96l-159 -221v-2z" />
    <glyph glyph-name="five" unicode="5" 
d="M433 650l0.000976562 -74h-248l-25 -167c20 2.66699 37.667 4 53 4c54.667 0 101.334 -11.667 140.001 -35c62 -35.333 93 -91 93 -167c0 -64 -22.833 -117 -68.5 -159s-103.5 -63 -173.5 -63c-66.667 0 -120.667 13.333 -162 40l22 67c40.667 -24 87 -36 139 -36
c42.667 0 79 13 109 39s45 60 45 102c-0.666992 44 -16.334 79 -47.001 105s-77.334 39 -140.001 39c-22.667 0 -52.667 -2.33301 -90 -7l42 312h311z" />
    <glyph glyph-name="six" unicode="6" 
d="M416 660l0.000976562 -72.001c-20 1.33301 -42 0 -66 -4c-65.333 -10.667 -117.333 -37.5 -156 -80.5s-62 -93.167 -70 -150.5h3c38 50 90.333 75 157 75c58 0 105.167 -19.167 141.5 -57.5s54.5 -89.166 54.5 -152.499c0 -62.667 -19.833 -116.5 -59.5 -161.5
s-91.834 -67.5 -156.501 -67.5c-69.333 0 -125 25.167 -167 75.5s-63 117.5 -63 201.5c0 122 36.667 219.667 110 293c54.667 54 124 86 208 96c22 3.33301 43.333 5 64 5zM264.001 56.999c38 0 68.666 14.3311 91.999 42.998s35 66.334 35 113.001
c0 46 -12.167 82.333 -36.5 109s-56.833 40 -97.5 40c-26 0 -50.5 -7.33301 -73.5 -22s-40.5 -34 -52.5 -58c-6.66699 -11.333 -10 -24.333 -10 -39c1.33301 -55.333 14.333 -100.166 39 -134.499s59.334 -51.5 104.001 -51.5z" />
    <glyph glyph-name="eight" unicode="8" 
d="M255 -11c-66 0 -118.832 16.999 -158.499 50.999s-59.5 75.667 -59.5 125c0 79.333 43 137.333 129 174l-1 3c-68.667 32.667 -103 81.334 -103 146.001c0 50.667 19 92.167 57 124.5s86 48.5 144 48.5c59.333 0 105.666 -15.667 138.999 -47s50 -69 50 -113
c0 -67.333 -35.667 -118 -107 -152v-3c87.333 -34.667 131 -90.667 131 -168c0 -56 -21.167 -101.5 -63.5 -136.5s-94.833 -52.5 -157.5 -52.5zM257.001 52.999c39.333 0 70.832 10.834 94.499 32.501s35.5 49.5 35.5 83.5c0 37.333 -12 67 -36 89s-59.667 39.667 -107 53
c-37.333 -10.667 -66.166 -27.834 -86.499 -51.501s-30.5 -51.167 -30.5 -82.5c-1.33301 -34 10 -63.167 34 -87.5s56 -36.5 96 -36.5zM258 598c-35.333 0 -63 -10 -83 -30s-30 -44.667 -30 -74c0 -58 41.333 -98 124 -120c30 10 54 25.167 72 45.5s27 44.5 27 72.5
c0 29.333 -9.16699 54.333 -27.5 75s-45.833 31 -82.5 31z" />
    <glyph glyph-name="nine" unicode="9" 
d="M96 -10l-0.00195312 72.002c13.333 -1.33301 37 -0.333008 71 3c54 7.33301 99.333 28.333 136 63c46 41.333 74.667 99 86 173h-3c-38 -46.667 -89 -70 -153 -70c-57.333 0 -103.666 19 -138.999 57s-53 85.333 -53 142c0 63.333 20.833 117.666 62.5 162.999
s94.834 68 159.501 68c66 0 118.333 -24.833 157 -74.5s58 -116.167 58 -199.5c0 -131.333 -37.333 -233 -112 -305c-50.667 -49.333 -113.667 -78.333 -189 -87c-28.667 -4.66699 -55.667 -6.33398 -81 -5.00098zM255.998 594.002c-37.333 0 -68 -14.833 -92 -44.5
s-36 -67.5 -36 -113.5c0 -40.667 11.333 -73.834 34 -99.501s53 -38.5 91 -38.5c28.667 0 54.167 6.16699 76.5 18.5s39.5 28.833 51.5 49.5c5.33301 8.66699 8 19.334 8 32.001c0 58.667 -11.167 106 -33.5 142s-55.5 54 -99.5 54z" />
    <glyph glyph-name="colon" unicode=":" horiz-adv-x="207" 
d="M111 342c-17.333 0 -31.5 5.83301 -42.5 17.5s-16.5 26.5 -16.5 44.5c0 18.667 5.66699 33.834 17 45.501s25.666 17.5 42.999 17.5s31.333 -5.83301 42 -17.5s16.334 -26.834 17.001 -45.501c0 -18 -5.5 -32.833 -16.5 -44.5s-25.5 -17.5 -43.5 -17.5zM111 -11
c-17.333 0 -31.5 5.83301 -42.5 17.5s-16.5 26.5 -16.5 44.5c0 18.667 5.66699 33.834 17 45.501s25.666 17.5 42.999 17.5s31.333 -5.83301 42 -17.5s16.334 -26.834 17.001 -45.501c0 -18 -5.5 -32.833 -16.5 -44.5s-25.5 -17.5 -43.5 -17.5z" />
    <glyph glyph-name="A" unicode="A" horiz-adv-x="612" 
d="M424 212h-239l-70 -212h-90l229 674h105l230 -674h-93zM203 280l202.999 0.000976562l-66 194c-9.33301 27.333 -21 68.333 -35 123h-2c-11.333 -46.667 -22.666 -87.334 -33.999 -122.001z" />
    <glyph glyph-name="B" unicode="B" horiz-adv-x="542" 
d="M76 2l-0.00195312 663.002c44 9.33301 97 14 159 14c82.667 0 144.334 -16.333 185.001 -49c37.333 -28 56 -67.667 56 -119c0 -32.667 -10.167 -62.334 -30.5 -89.001s-48.166 -46.334 -83.499 -59.001v-2c37.333 -9.33301 69.833 -28.333 97.5 -57s41.5 -66 41.5 -112
c0 -53.333 -19 -98.333 -57 -135c-46 -42 -123.667 -63 -233 -63c-51.333 0 -96.333 2.66699 -135 8zM162.998 606.002l0.000976562 -217h79c45.333 0 81 10.5 107 31.5s39 48.167 39 81.5c0 73.333 -49.333 110 -148 110c-32.667 0 -58.334 -2 -77.001 -6zM162.999 323.002
v-257c15.333 -2.66699 39.666 -4 72.999 -4c50 0 91.333 10.5 124 31.5s49 54.167 49 99.5c0 43.333 -16.167 75.833 -48.5 97.5s-74.166 32.5 -125.499 32.5h-72z" />
    <glyph glyph-name="D" unicode="D" horiz-adv-x="666" 
d="M76 2l0.000976562 662.999c62 9.33301 123.667 14 185 14c122 0 213 -28 273 -84c63.333 -58 95 -138.667 95 -242c0 -111.333 -32.333 -198.666 -97 -261.999c-64.667 -64.667 -164 -97 -298 -97c-58.667 0 -111.334 2.66699 -158.001 8zM163.001 600.999
l-0.000976562 -532c18.667 -3.33301 48 -5 88 -5c92.667 0 163.667 24.833 213 74.5s74 120.167 74 211.5c0.666992 81.333 -22.166 145 -68.499 191s-114.5 69 -204.5 69c-40.667 0 -74.667 -3 -102 -9z" />
    <glyph glyph-name="H" unicode="H" horiz-adv-x="652" 
d="M76 674h87v-282h326v282h88v-674h-88v316h-326v-316h-87v674z" />
    <glyph glyph-name="I" unicode="I" horiz-adv-x="239" 
d="M76 674h87v-674h-87v674z" />
    <glyph glyph-name="L" unicode="L" horiz-adv-x="472" 
d="M76 0v674h87v-601h288v-73h-375z" />
    <glyph glyph-name="N" unicode="N" horiz-adv-x="658" 
d="M158 0l-82 0.000976562v674h95l216 -341c48.667 -76.667 89 -149.667 121 -219l2 1c-6.66699 75.333 -10 167.666 -10 276.999v282h82v-674h-88l-214 342c-55.333 88 -97.333 163 -126 225l-3 -1c4.66699 -79.333 7 -172 7 -278v-288z" />
    <glyph glyph-name="O" unicode="O" horiz-adv-x="689" 
d="M349 685c91.333 0 164.666 -31.666 219.999 -94.999s83 -145.333 83 -246c0 -112 -29.667 -199.167 -89 -261.5s-134 -93.5 -224 -93.5c-89.333 0 -162.166 31.667 -218.499 95s-84.5 145.666 -84.5 246.999c0 106 29.333 191.5 88 256.5s133.667 97.5 225 97.5z
M345 614.001c-68.667 0 -121.834 -27.168 -159.501 -81.501s-56.5 -120.833 -56.5 -199.5c0 -75.333 19.333 -139.666 58 -192.999s91 -80 157 -80c66.667 0 119.334 26.667 158.001 80s58 120 58 200c0 73.333 -18.833 137.333 -56.5 192s-90.5 82 -158.5 82z" />
    <glyph glyph-name="P" unicode="P" horiz-adv-x="532" 
d="M76 0v666c52 8.66699 107.667 13 167 13c84.667 0 147.667 -18.667 189 -56c39.333 -34 59 -81 59 -141s-17.333 -108 -52 -144c-46 -49.333 -114.667 -74 -206 -74c-30.667 0 -54 2 -70 6v-270h-87zM163 603l-0.00195312 -261.999c18 -4.66699 42 -7 72 -7
c53.333 0 94.833 12.5 124.5 37.5s44.5 60.5 44.5 106.5c0 43.333 -14.167 76.166 -42.5 98.499s-67.166 33.5 -116.499 33.5c-37.333 0 -64.666 -2.33301 -81.999 -7z" />
    <glyph glyph-name="S" unicode="S" horiz-adv-x="493" 
d="M42 33l21.999 73.0059c47.333 -29.333 99.333 -44 156 -44c44 0 78.5 10.5 103.5 31.5s37.5 48.833 37.5 83.5c0 31.333 -9.66699 57.166 -29 77.499s-52 39.166 -98 56.499c-118.667 42 -178 105.667 -178 191c0 53.333 20.167 97.166 60.5 131.499
s92.833 51.5 157.5 51.5c60.667 0 110.334 -11 149.001 -33l-24 -71c-39.333 21.333 -82 32 -128 32c-42 0 -73.667 -10.167 -95 -30.5s-32 -43.833 -32 -70.5c0 -30.667 10.167 -55.334 30.5 -74.001s54.833 -37.334 103.5 -56.001
c59.333 -22.667 102.833 -49.334 130.5 -80.001s41.5 -70 41.5 -118c0 -55.333 -20.333 -101.5 -61 -138.5s-99 -55.5 -175 -55.5c-32 0 -64 4.16699 -96 12.5s-57.333 18.5 -76 30.5z" />
    <glyph glyph-name="T" unicode="T" horiz-adv-x="497" 
d="M204 0v600h-205v74h499v-74h-206v-600h-88z" />
    <glyph glyph-name="U" unicode="U" horiz-adv-x="647" 
d="M75 674l87.999 0.000976562v-399c0 -72 14.333 -125.833 43 -161.5s66.667 -53.5 114 -53.5c52 0 92.333 17.667 121 53s43 89.333 43 162v399h88v-393c0 -98.667 -23.167 -172 -69.5 -220s-108.166 -72 -185.499 -72c-74 0 -132.833 23.167 -176.5 69.5
s-65.5 119.166 -65.5 218.499v397z" />
    <glyph glyph-name="V" unicode="V" horiz-adv-x="558" 
d="M320 0l-96 -0.000976562l-220 674h94l105 -332c34 -107.333 58 -191.333 72 -252h2c14 58.667 39.667 142.334 77 251.001l114 333h93z" />
    <glyph glyph-name="W" unicode="W" horiz-adv-x="846" 
d="M277 0l-91 -0.00195312l-171 674h92l80 -341c20.667 -87.333 37.334 -165 50.001 -233h2c7.33301 45.333 25.666 123.333 54.999 234l90 340h91l82 -342c24 -100 39.667 -177 47 -231h2c8.66699 46.667 26.667 124.334 54 233.001l89 340h89l-191 -674h-91l-85 351
c-21.333 88.667 -36 162 -44 220h-2c-12.667 -69.333 -30 -142.666 -52 -219.999z" />
    <glyph glyph-name="Z" unicode="Z" horiz-adv-x="553" 
d="M30 0v51l374 547v3h-342v73h455v-53l-372 -545v-3h377v-73h-492z" />
    <glyph glyph-name="a" unicode="a" horiz-adv-x="482" 
d="M421 0l-79.9971 0.00292969l-7 61h-3c-14.667 -20.667 -34.834 -37.834 -60.501 -51.501s-54.834 -20.5 -87.501 -20.5c-46.667 0 -83 13.667 -109 41s-39 60 -39 98c0 58.667 25.167 103.5 75.5 134.5s122.166 46.167 215.499 45.5v10c0 74.667 -36.667 112 -110 112
c-46.667 0 -88.667 -12 -126 -36l-20 58c44 28.667 97 43 159 43c35.333 0 65.5 -5.66699 90.5 -17s44 -26.833 57 -46.5s22.333 -40.334 28 -62.001s8.5 -45.834 8.5 -72.501v-181c0 -48 2.66699 -86.667 8 -116zM328.003 163.003l0.000976562 83.9971
c-136.667 2.66699 -205 -33.666 -205 -108.999c0 -27.333 7.83301 -48.166 23.5 -62.499s35.5 -21.5 59.5 -21.5c29.333 0 54.166 7.83301 74.499 23.5s34.5 34.834 42.5 57.501c3.33301 10 5 19.333 5 28z" />
    <glyph glyph-name="b" unicode="b" horiz-adv-x="569" 
d="M145 0h-75.999c2.66699 44 4 85.667 4 125v585h87v-304h2c34 59.333 89 89 165 89c60 0 109.167 -22.833 147.5 -68.5s57.166 -105.167 56.499 -178.5c0 -81.333 -21.5 -144.833 -64.5 -190.5s-93.833 -68.5 -152.5 -68.5c-74 0 -128 30.333 -162 91h-3zM160.001 281
v-86.998c0 -8 1.33301 -18.667 4 -32c8.66699 -30.667 25 -55.5 49 -74.5s51.667 -28.5 83 -28.5c45.333 0 81.166 17 107.499 51s39.5 79 39.5 135c0 51.333 -12.667 94.166 -38 128.499s-60.666 51.5 -105.999 51.5c-30.667 0 -58.5 -9.83301 -83.5 -29.5
s-41.833 -45.834 -50.5 -78.501c-3.33301 -16.667 -5 -28.667 -5 -36z" />
    <glyph glyph-name="c" unicode="c" horiz-adv-x="448" 
d="M403 84l14.998 -65.999c-36 -18.667 -82.333 -28 -139 -28c-72.667 0 -131 22.667 -175 68s-66 105 -66 179c0 75.333 23.833 137 71.5 185s110.5 72 188.5 72c48 0 88.667 -8.33301 122 -25l-20 -68c-26.667 15.333 -60.667 23 -102 23
c-53.333 0 -95.166 -17.333 -125.499 -52s-45.5 -78.334 -45.5 -131.001c0 -55.333 15.833 -99.333 47.5 -132s71.834 -49 120.501 -49c35.333 0 71.333 8 108 24z" />
    <glyph glyph-name="d" unicode="d" horiz-adv-x="564" 
d="M403 710l87.999 -0.000976562v-585c0 -54 1.33301 -95.667 4 -125h-79l-4 84h-2c-14 -28 -35.5 -50.833 -64.5 -68.5s-62.5 -26.5 -100.5 -26.5c-59.333 0 -108.666 22.833 -147.999 68.5s-59 104.834 -59 177.501c-0.666992 78 20 140.833 62 188.5
s93.667 71.5 155 71.5c34.667 0 64.667 -7 90 -21s44 -31.667 56 -53h2v289zM402.999 202.999v84c0 14.667 -1.33301 27 -4 37c-6.66699 29.333 -21.5 53.666 -44.5 72.999s-50.5 29 -82.5 29c-44.667 0 -80 -17.5 -106 -52.5s-39 -79.833 -39 -134.5
c0 -51.333 12.5 -94 37.5 -128s60.167 -51 105.5 -51c30 0 57 9.5 81 28.5s40 44.5 48 76.5c2.66699 10.667 4 23.334 4 38.001z" />
    <glyph glyph-name="e" unicode="e" horiz-adv-x="501" 
d="M462 226l-339.999 -0.00195312c0.666992 -56 16.667 -98 48 -126s70.666 -42 117.999 -42c50 0 94.667 8.33301 134 25l15 -63c-44 -20 -97.667 -30 -161 -30c-74 0 -132.167 22.167 -174.5 66.5s-63.5 103.5 -63.5 177.5c0 74.667 20.667 136.834 62 186.501
s96.333 74.5 165 74.5c37.333 0 69.833 -7.5 97.5 -22.5s48.5 -34.667 62.5 -59s24.167 -48.666 30.5 -72.999s9.5 -48.833 9.5 -73.5c0 -9.33301 -1 -23 -3 -41zM123.001 288.998h257.001c0.666992 36 -8.5 68.833 -27.5 98.5s-50.5 44.5 -94.5 44.5
c-40.667 0 -72.334 -14.667 -95.001 -44s-36 -62.333 -40 -99z" />
    <glyph glyph-name="f" unicode="f" horiz-adv-x="292" 
d="M169 0l-87 0.000976562v417h-68v67h68v23c0 77.333 18.667 133.666 56 168.999c30.667 30 70 45 118 45c27.333 0 52.333 -4.66699 75 -14l-12 -68c-16 7.33301 -34.667 11 -56 11c-62.667 0 -94 -46.667 -94 -140v-26h117v-67h-117v-417z" />
    <glyph glyph-name="g" unicode="g" horiz-adv-x="559" 
d="M413 484h77.001c-2.66699 -46.667 -4 -91 -4 -133v-281c0 -106 -23 -179.667 -69 -221c-41.333 -38.667 -100 -58 -176 -58c-67.333 0 -121 13.333 -161 40l22 67c40.667 -25.333 88 -38 142 -38c48 0 86 13.667 114 41s42 70 42 128v54h-2c-32.667 -54 -84 -81 -154 -81
c-59.333 0 -108.5 22.5 -147.5 67.5s-58.5 101.167 -58.5 168.5c0 78 21.667 140.333 65 187s94.333 70 153 70c71.333 0 121.666 -28 150.999 -84h2zM399.001 206l0.00292969 87.001c0 16.667 -1.66699 30 -5 40c-8.66699 27.333 -23.667 49.666 -45 66.999
s-47.333 26 -78 26c-42.667 0 -77.334 -16.667 -104.001 -50s-40 -77.666 -40 -132.999c0 -50 12.5 -91.5 37.5 -124.5s60.167 -49.5 105.5 -49.5c27.333 0 52.166 8.16699 74.499 24.5s38.166 38.166 47.499 65.499c4.66699 14 7 29.667 7 47z" />
    <glyph glyph-name="h" unicode="h" horiz-adv-x="555" 
d="M73 0l-0.00195312 709.998h88v-302h2c14.667 26 35.667 46.667 63 62c28.667 16.667 58.667 25 90 25c18.667 0 36.834 -3.16699 54.501 -9.5s35.667 -16.666 54 -30.999s33 -35.833 44 -64.5s16.5 -62.667 16.5 -102v-288h-88v278c0 42.667 -9 77.334 -27 104.001
s-46.333 40 -85 40c-27.333 0 -51.666 -8.33301 -72.999 -25s-36.333 -37.667 -45 -63c-4 -9.33301 -6 -23.333 -6 -42v-292h-88z" />
    <glyph glyph-name="i" unicode="i" horiz-adv-x="234" 
d="M161 0h-88v484h88v-484zM117 675c16 0 28.998 -5.16699 38.998 -15.5s15 -23.5 15 -39.5c0.666992 -15.333 -4.16602 -28.166 -14.499 -38.499s-24.166 -15.5 -41.499 -15.5c-15.333 0 -28 5.16699 -38 15.5s-15 23.166 -15 38.499s5.16699 28.333 15.5 39
s23.5 16 39.5 16z" />
    <glyph glyph-name="j" unicode="j" horiz-adv-x="243" 
d="M-36 -209l-9.00098 69c44.667 3.33301 76.667 15.666 96 36.999c12.667 14.667 21.334 34.5 26.001 59.5s7 65.833 7 122.5v405h88v-439c0 -93.333 -19.333 -159.666 -58 -198.999c-18 -18 -41 -31.667 -69 -41s-55 -14 -81 -14zM128.999 675
c16 0 28.832 -5.16895 38.499 -15.502s14.5 -23.5 14.5 -39.5c0.666992 -15.333 -4.16602 -28.166 -14.499 -38.499s-23.833 -15.5 -40.5 -15.5c-16 0 -29 5.33301 -39 16s-15 23.334 -15 38.001c0 16 5.16699 29.167 15.5 39.5s23.833 15.5 40.5 15.5z" />
    <glyph glyph-name="k" unicode="k" horiz-adv-x="469" 
d="M160 710l0.000976562 -447.999h2c9.33301 13.333 23.666 31.666 42.999 54.999l142 167h106l-187 -199l213 -285h-107l-167 232l-45 -50v-182h-87v710h87z" />
    <glyph glyph-name="l" unicode="l" horiz-adv-x="236" 
d="M73 0v710h88v-710h-88z" />
    <glyph glyph-name="m" unicode="m" horiz-adv-x="834" 
d="M73 0l-0.000976562 353c0 52 -1.33301 95.667 -4 131h77l4 -78h3c34.667 59.333 85.334 89 152.001 89c32 0 60.167 -8.83301 84.5 -26.5s41.833 -41.167 52.5 -70.5h2c14 26 32 47 54 63c30 22.667 65.667 34 107 34c18 0 35.5 -3.33301 52.5 -10
s33.833 -17.167 50.5 -31.5s30.167 -36 40.5 -65s15.5 -63.5 15.5 -103.5v-285h-86v274c0 99.333 -35 149 -105 149c-24 0 -45.333 -7.66699 -64 -23s-32 -34.333 -40 -57c-4.66699 -14 -7 -28.667 -7 -44v-299h-86v290c0 40 -8.66699 72.167 -26 96.5
s-42.333 36.5 -75 36.5c-26 0 -48.833 -8.66699 -68.5 -26s-33.167 -38 -40.5 -62c-4.66699 -12 -7 -26.333 -7 -43v-292h-86z" />
    <glyph glyph-name="n" unicode="n" horiz-adv-x="555" 
d="M73 0v352.997c0 52 -1.33301 95.667 -4 131h78l5 -80h2c13.333 25.333 34 46.833 62 64.5s60.667 26.5 98 26.5c18.667 0 37.167 -3.16699 55.5 -9.5s36.5 -16.666 54.5 -30.999s32.667 -35.666 44 -63.999s17 -62.166 17 -101.499v-289h-88v279
c0 42.667 -9 77.167 -27 103.5s-46.333 39.5 -85 39.5c-28 0 -52.667 -8.66699 -74 -26s-36 -38.666 -44 -63.999c-4 -10.667 -6 -24.334 -6 -41.001v-291h-88z" />
    <glyph glyph-name="o" unicode="o" horiz-adv-x="549" 
d="M278 495c69.333 0 125.501 -22.999 168.501 -68.999s64.5 -106 64.5 -180c0 -83.333 -23.833 -147 -71.5 -191s-104.167 -66 -169.5 -66c-66.667 0 -122 22.667 -166 68s-66 105.666 -66 180.999c0 78.667 22.667 141.167 68 187.5s102.666 69.5 171.999 69.5z
M276.001 429.001c-48.667 0 -85.667 -18.501 -111 -55.501s-38 -81.167 -38 -132.5c0 -53.333 13.833 -97.666 41.5 -132.999s62.834 -53 105.501 -53c42 0 77 17.833 105 53.5s42 80.5 42 134.5c0 29.333 -4.66699 57.5 -14 84.5s-25.333 50.667 -48 71
s-50.334 30.5 -83.001 30.5z" />
    <glyph glyph-name="p" unicode="p" horiz-adv-x="569" 
d="M73 -198v524.001c0 44 -1.33301 96.667 -4 158h79l4 -83h2c38 62.667 95.333 94 172 94c59.333 0 108.333 -22.833 147 -68.5s58 -104.834 58 -177.501c0 -82.667 -21.333 -146.667 -64 -192s-94.667 -68 -156 -68c-32 0 -61.167 6.66699 -87.5 20s-46.833 32 -61.5 56
h-2v-263h-87zM160 280.001l0.00390625 -83.001c0 -9.33301 1.33301 -21.333 4 -36c8 -30.667 24.167 -55.5 48.5 -74.5s52.166 -28.5 83.499 -28.5c46 0 82 17 108 51s39 79.333 39 136c0 50.667 -12.833 93.334 -38.5 128.001s-60.834 52 -105.501 52
c-30.667 0 -58.334 -10 -83.001 -30s-41.334 -46.333 -50.001 -79c-4 -14.667 -6 -26.667 -6 -36z" />
    <glyph glyph-name="r" unicode="r" horiz-adv-x="327" 
d="M73 0l-0.000976562 333c0 60.667 -1.33301 111 -4 151h77l3 -95h4c10.667 32.667 28.334 58.5 53.001 77.5s51.667 28.5 81 28.5c8.66699 0 17 -1 25 -3v-83c-8.66699 2 -18.667 3 -30 3c-30.667 0 -56.5 -10.333 -77.5 -31s-34.5 -48 -40.5 -82
c-2.66699 -16 -4 -29.667 -4 -41v-258h-87z" />
    <glyph glyph-name="s" unicode="s" horiz-adv-x="396" 
d="M39 23l21.999 67.001c36 -23.333 74.667 -35 116 -35c30.667 0 54 6.66699 70 20s24 30.666 24 51.999c0 20.667 -6.83301 37.667 -20.5 51s-36.834 26 -69.501 38c-85.333 30.667 -128 76.334 -128 137.001c0 40 15.167 73.667 45.5 101s70.833 41 121.5 41
c45.333 0 85 -10 119 -30l-22 -64c-29.333 18.667 -62.333 28 -99 28c-25.333 0 -45.166 -6.33301 -59.499 -19s-21.5 -28.334 -21.5 -47.001c0 -19.333 6.83301 -34.666 20.5 -45.999s37.5 -23.333 71.5 -36c43.333 -16.667 75.333 -36.334 96 -59.001s31 -51.667 31 -87
c0 -43.333 -16 -78.333 -48 -105s-76.333 -40 -133 -40c-53.333 0 -98.666 11 -135.999 33z" />
    <glyph glyph-name="t" unicode="t" horiz-adv-x="331" 
d="M93 600l86 23v-139h126v-67h-126v-261c0 -62.667 22 -94 66 -94c19.333 0 36.333 2 51 6l4 -66c-19.333 -8 -45.333 -12 -78 -12c-42 0 -73.667 12.333 -95 37c-22.667 23.333 -34 65.333 -34 126v264h-75v67h75v116z" />
    <glyph glyph-name="u" unicode="u" horiz-adv-x="551" 
d="M478 484l-0.000976562 -352c0 -54 1.33301 -98 4 -132h-78l-5 79h-2c-14 -24 -34.5 -45 -61.5 -63s-59.833 -27 -98.5 -27c-20.667 0 -40.167 3.16699 -58.5 9.5s-36 17 -53 32s-30.5 37 -40.5 66s-15 63.833 -15 104.5v283h88v-268c0 -102.667 36 -154 108 -154
c27.333 0 51.333 7.83301 72 23.5s35.334 34.5 44.001 56.5c5.33301 14 8 29 8 45v297h88z" />
    <glyph glyph-name="v" unicode="v" horiz-adv-x="481" 
d="M13 484h93.999l95 -272c17.333 -46.667 30.333 -88 39 -124h3c8.66699 30.667 22.334 72 41.001 124l94 272h92l-190 -484h-84z" />
    <glyph glyph-name="w" unicode="w" horiz-adv-x="736" 
d="M18 484h90l64 -246c18 -69.333 30 -120.666 36 -153.999h3c7.33301 32.667 21.666 83.667 42.999 153l79 247h74l75 -242c18 -58.667 32.333 -111.334 43 -158.001h3c6.66699 40 19 92.333 37 157l69 243h87l-156 -484h-80l-74 231
c-19.333 60.667 -33.666 113.667 -42.999 159h-2c-9.33301 -46 -24 -99.333 -44 -160l-78 -230h-80z" />
    <glyph glyph-name="x" unicode="x" horiz-adv-x="463" 
d="M16 484h98l69 -104c13.333 -20 29.666 -46.333 48.999 -79h3l48 80l68 103h95l-165 -234l170 -250h-100l-71 109c-13.333 20 -30.666 48 -51.999 84h-2c-6 -11.333 -23 -39.333 -51 -84l-70 -109h-97l172 247z" />
    <glyph glyph-name="y" unicode="y" horiz-adv-x="471" 
d="M9 484l95.9971 -0.00292969l106 -286c12.667 -36 23 -69 31 -99h2c0.666992 2 4.83398 15.833 12.501 41.5s13.834 45.5 18.501 59.5l96 284h93l-132 -345c-32.667 -86 -61.167 -151.667 -85.5 -197s-51.166 -80.666 -80.499 -105.999
c-35.333 -31.333 -71.333 -50.333 -108 -57l-22 74c28 8.66699 53.667 23 77 43c31.333 24.667 56 57.334 74 98.001c4.66699 10.667 7 17.667 7 21c0 4.66699 -2 12.334 -6 23.001z" />
    <glyph glyph-name="z" unicode="z" horiz-adv-x="428" 
d="M18 0v50.999l219 285l63 75v2h-262v71h369l-1 -55l-216 -281c-17.333 -23.333 -38 -48.666 -62 -75.999v-2h283v-70h-393z" />
    <glyph glyph-name="eacute" unicode="&#xe9;" horiz-adv-x="501" 
d="M462 226l-339.999 -0.00195312c0.666992 -56 16.667 -98 48 -126s70.666 -42 117.999 -42c50 0 94.667 8.33301 134 25l15 -63c-44 -20 -97.667 -30 -161 -30c-74 0 -132.167 22.167 -174.5 66.5s-63.5 103.5 -63.5 177.5c0 74.667 20.667 136.834 62 186.501
s96.333 74.5 165 74.5c37.333 0 69.833 -7.5 97.5 -22.5s48.5 -34.667 62.5 -59s24.167 -48.666 30.5 -72.999s9.5 -48.833 9.5 -73.5c0 -9.33301 -1 -23 -3 -41zM123.001 288.998h257.001c0.666992 36 -8.5 68.833 -27.5 98.5s-50.5 44.5 -94.5 44.5
c-40.667 0 -72.334 -14.667 -95.001 -44s-36 -62.333 -40 -99zM304.002 692.998h97l-122 -143h-63z" />
    <glyph glyph-name="edieresis" unicode="&#xeb;" horiz-adv-x="501" 
d="M462 226l-339.999 -0.00195312c0.666992 -56 16.667 -98 48 -126s70.666 -42 117.999 -42c50 0 94.667 8.33301 134 25l15 -63c-44 -20 -97.667 -30 -161 -30c-74 0 -132.167 22.167 -174.5 66.5s-63.5 103.5 -63.5 177.5c0 74.667 20.667 136.834 62 186.501
s96.333 74.5 165 74.5c37.333 0 69.833 -7.5 97.5 -22.5s48.5 -34.667 62.5 -59s24.167 -48.666 30.5 -72.999s9.5 -48.833 9.5 -73.5c0 -9.33301 -1 -23 -3 -41zM123.001 288.998h257.001c0.666992 36 -8.5 68.833 -27.5 98.5s-50.5 44.5 -94.5 44.5
c-40.667 0 -72.334 -14.667 -95.001 -44s-36 -62.333 -40 -99zM176.002 569.998c-14.667 0 -26.833 5.00098 -36.5 15.001s-14.5 22 -14.5 36s5 26 15 36s22 15 36 15s25.667 -4.83301 35 -14.5s14 -21.834 14 -36.501c0 -14 -4.66699 -26 -14 -36s-21 -15 -35 -15z
M361.003 569.999c-14.667 0 -26.667 5.00098 -36 15.001s-14 22 -14 36s4.83301 26 14.5 36s21.5 15 35.5 15s25.667 -4.83301 35 -14.5s14 -21.834 14 -36.501c0 -14 -4.66699 -26 -14 -36s-21 -15 -35 -15z" />
    <glyph glyph-name="quotedblleft" unicode="&#x201c;" horiz-adv-x="354" 
d="M125 451l-91 -10c11.333 42 26.333 86.333 45 133s35 81.667 49 105l56 6c-26 -70.667 -45.667 -148.667 -59 -234zM273 451l-90.001 -10c10.667 40.667 25.334 84.5 44.001 131.5s35 82.5 49 106.5l56 6c-26 -70.667 -45.667 -148.667 -59 -234z" />
    <glyph glyph-name="quotedblright" unicode="&#x201d;" horiz-adv-x="354" 
d="M93 676l89.998 9c-11.333 -41.333 -26.166 -85.333 -44.499 -132s-34.5 -81.667 -48.5 -105l-56 -7c26.667 76 46.334 154.333 59.001 235zM240.998 676l89.999 9c-11.333 -41.333 -26.166 -85.333 -44.499 -132s-34.5 -81.667 -48.5 -105l-56 -7
c26 70 45.667 148.333 59 235z" />
    <glyph glyph-name=".null" horiz-adv-x="0" 
 />
    <glyph glyph-name="nonmarkingreturn" horiz-adv-x="333" 
 />
  </font>
</defs>
</svg>
