<svg xmlns="http://www.w3.org/2000/svg" width="18.017" height="11.523" viewBox="0 0 18.017 11.523">
  <path id="behance" d="M1203.82,3871.5h4.484v1.145h-4.484Zm6.185,6.783h-5.838c.062,1.417.751,1.938,1.987,1.938.893,0,1.614-.285,1.755-.789h1.78c-.625,1.919-1.78,2.472-3.612,2.472a3.963,3.963,0,0,1-4.132-4.279,4.07,4.07,0,0,1,4.132-4.3C1208.831,3873.329,1210.161,3875.78,1210.005,3878.281Zm-5.838-1.663h3.616c-.2-1.132-.69-1.606-1.77-1.606A1.669,1.669,0,0,0,1204.167,3876.618Zm-2.806,1.806c0,2.281-1.926,3.258-3.945,3.258H1192v-11.3h5.26c2.128,0,3.568.763,3.568,2.855a2.465,2.465,0,0,1-1.519,2.345A2.74,2.74,0,0,1,1201.361,3878.425Zm-4.813-6.145h-2.3v2.627h2.488c.86,0,1.5-.393,1.5-1.336C1198.238,3872.5,1197.424,3872.28,1196.548,3872.28Zm.375,4.31h-2.675v3.084h2.629c.971,0,1.815-.314,1.815-1.479C1198.691,3877.047,1197.972,3876.59,1196.923,3876.59Z" transform="translate(-1192 -3870.379)"/>
</svg>
