<svg xmlns="http://www.w3.org/2000/svg" width="18.001" height="18.001" viewBox="0 0 18.001 18.001">
  <path id="dribbble" d="M1259.817,3874.188a9,9,0,1,0-16.28,6.845,9.024,9.024,0,0,0,2.43,2.429,8.992,8.992,0,0,0,10.066,0,9.03,9.03,0,0,0,2.43-2.429,9.018,9.018,0,0,0,1.355-6.845Zm-1.133,1.735a17.8,17.8,0,0,0-5.354-.252c-.054-.131-.109-.264-.166-.4-.16-.376-.332-.749-.511-1.115a9.882,9.882,0,0,0,4.282-3.042A7.652,7.652,0,0,1,1258.684,3875.923Zm-2.607-5.692a8.367,8.367,0,0,1-4.015,2.783,39.011,39.011,0,0,0-2.873-4.484,7.675,7.675,0,0,1,6.888,1.7Zm-6.917-1.695h0l-.023,0Zm-1.439.511a46.26,46.26,0,0,1,2.854,4.429,28.454,28.454,0,0,1-7.1.939A7.7,7.7,0,0,1,1247.721,3869.048Zm-4.407,6.951c0-.082,0-.162.006-.243a28.192,28.192,0,0,0,7.891-1.095c.22.431.431.869.624,1.306-.1.028-.2.059-.3.092a12.16,12.16,0,0,0-6.252,5.073l0,0A7.66,7.66,0,0,1,1243.314,3876Zm7.687,7.687a7.655,7.655,0,0,1-4.9-1.761c.1.082.172.135.172.135a10.413,10.413,0,0,1,6.032-4.8l.051-.016a31.965,31.965,0,0,1,1.642,5.836A7.659,7.659,0,0,1,1251,3883.687Zm4.295-1.311a33.187,33.187,0,0,0-1.5-5.49,11.133,11.133,0,0,1,4.79.336A7.691,7.691,0,0,1,1255.3,3882.375Z" transform="translate(-1242 -3866.999)"/>
</svg>
