<svg xmlns="http://www.w3.org/2000/svg" width="18" height="15.471" viewBox="0 0 18 15.471">
  <path id="google_plus" data-name="google plus" d="M1107.188,3872.289v2.745h-1.125v-2.745h-2.812v-1.122h2.812v-2.745h1.125v2.745H1110v1.122Zm-7.779-2.78a2.882,2.882,0,0,1,1.583,2.623,3.046,3.046,0,0,1-1.394,2.365c-.766.587-.911.834-.911,1.334,0,.426.821,1.152,1.25,1.45a3.206,3.206,0,0,1,1.625,3.03c0,1.684-1.625,3.565-4.63,3.565-2.637,0-4.931-1.261-4.931-2.945,0-1.71,2.1-3.361,4.736-3.361.287,0,.55-.011.823-.011a1.812,1.812,0,0,1-.646-1.295,1.932,1.932,0,0,1,.241-.884c-.143.01-.289-.013-.44-.013a3.444,3.444,0,0,1-3.616-3.44c0-1.834,2-3.523,4.132-3.523h4.747l-1.062,1.1Zm-2.171,8.5c-1.822-.019-3.454,1.091-3.454,2.425,0,1.361,1.316,2.355,3.138,2.355,2.562,0,3.455-.925,3.455-2.286a2.072,2.072,0,0,0-.058-.481c-.2-.77-.91-1.151-1.9-1.827A4.025,4.025,0,0,0,1097.238,3878.007Zm2.047-5.854a3.172,3.172,0,0,0-2.65-2.879c-1.223-.036-2.043,1.171-1.831,2.749s1.373,2.886,2.6,2.921S1099.5,3873.731,1099.285,3872.153Z" transform="translate(-1092 -3868.405)"/>
</svg>
