<svg xmlns="http://www.w3.org/2000/svg" width="18" height="18" viewBox="0 0 18 18">
  <path id="instagram" d="M1157.75,3885h-13.5a2.25,2.25,0,0,1-2.25-2.25v-13.5a2.25,2.25,0,0,1,2.25-2.25h13.5a2.25,2.25,0,0,1,2.25,2.25v13.5A2.25,2.25,0,0,1,1157.75,3885Zm-6.75-12.488a3.485,3.485,0,0,0-3.163,2.025h0c-.006.013-.01.026-.015.039-.033.074-.062.15-.09.226-.013.036-.028.073-.04.109-.026.078-.047.158-.067.239-.01.038-.021.075-.029.113-.018.085-.031.172-.043.259,0,.035-.012.07-.016.105a3.524,3.524,0,0,0-.021.373,3.488,3.488,0,0,0,6.975,0,3.524,3.524,0,0,0-.021-.373c0-.036-.011-.07-.016-.105-.012-.087-.025-.174-.043-.259-.008-.038-.02-.075-.029-.113-.02-.08-.041-.16-.067-.239-.012-.037-.027-.073-.04-.109-.028-.076-.057-.152-.091-.226-.006-.012-.01-.026-.015-.039h0A3.485,3.485,0,0,0,1151,3872.512Zm6.975-2.587a.9.9,0,0,0-.9-.9h-1.8a.9.9,0,0,0-.9.9v1.8a.9.9,0,0,0,.9.9h1.8a.9.9,0,0,0,.9-.9Zm0,4.612h-1.659a5.512,5.512,0,1,1-10.632,0h-1.659v7.538a.9.9,0,0,0,.9.9h12.15a.9.9,0,0,0,.9-.9Z" transform="translate(-1142 -3867)"/>
</svg>
