<svg xmlns="http://www.w3.org/2000/svg" width="18" height="14.61" viewBox="0 0 18 14.61">
  <path id="twitter" d="M1054.243,3868.688a3.8,3.8,0,0,1,2.919,1.159,5.982,5.982,0,0,0,1.892-.638l.46-.251a3.694,3.694,0,0,1-1.2,1.733,1.762,1.762,0,0,1-.405.288v.009a6.922,6.922,0,0,0,2.09-.566v.009a5.969,5.969,0,0,1-1.252,1.437l-.577.458a10.579,10.579,0,0,1-.171,2.371,10.324,10.324,0,0,1-7.234,8.165,11.062,11.062,0,0,1-5.225.215,13.474,13.474,0,0,1-2.171-.709,8.652,8.652,0,0,1-1.045-.539l-.324-.2a6.05,6.05,0,0,0,1.18.045c.363-.058.719-.043,1.054-.117a7.566,7.566,0,0,0,2.216-.8,4.133,4.133,0,0,0,1-.656,3.135,3.135,0,0,1-1.1-.2,3.71,3.71,0,0,1-2.342-2.363c.362.04,1.4.134,1.649-.072a2.7,2.7,0,0,1-1.207-.485,3.553,3.553,0,0,1-1.739-3.162l.378.18a4.046,4.046,0,0,0,.775.216,1.105,1.105,0,0,0,.5.045h-.018c-.186-.217-.489-.361-.676-.593a3.772,3.772,0,0,1-.829-3.35,4.278,4.278,0,0,1,.4-.961l.018.009a2.254,2.254,0,0,0,.333.386,6.769,6.769,0,0,0,1.1,1.051,10.875,10.875,0,0,0,4.513,2.183,7.06,7.06,0,0,0,1.658.215,3.427,3.427,0,0,1,.018-1.733,3.642,3.642,0,0,1,2.09-2.479,4.461,4.461,0,0,1,.82-.251Z" transform="translate(-1042 -3868.687)"/>
</svg>
